<svg width="30" height="29" viewBox="0 0 30 29" fill="none" xmlns="http://www.w3.org/2000/svg">
<path d="M25.7812 22.291C26.4258 22.6133 27.0068 23.0088 27.5244 23.4775C28.042 23.9463 28.4814 24.4688 28.8428 25.0449C29.2041 25.6211 29.4873 26.2461 29.6924 26.9199C29.8975 27.5938 30 28.2871 30 29H28.125C28.125 28.2285 27.9785 27.501 27.6855 26.8174C27.3926 26.1338 26.9922 25.5381 26.4844 25.0303C25.9766 24.5225 25.376 24.1172 24.6826 23.8145C23.9893 23.5117 23.2617 23.3652 22.5 23.375C21.7188 23.375 20.9912 23.5215 20.3174 23.8145C19.6436 24.1074 19.0479 24.5078 18.5303 25.0156C18.0127 25.5234 17.6074 26.124 17.3145 26.8174C17.0215 27.5107 16.875 28.2383 16.875 29H15C15 28.2871 15.0977 27.5938 15.293 26.9199C15.4883 26.2461 15.7715 25.6211 16.1426 25.0449C16.5137 24.4688 16.958 23.9463 17.4756 23.4775C17.9932 23.0088 18.5742 22.6133 19.2188 22.291C18.4863 21.7637 17.915 21.1045 17.5049 20.3135C17.0947 19.5225 16.8848 18.668 16.875 17.75C16.875 16.9785 17.0215 16.251 17.3145 15.5674C17.6074 14.8838 18.0078 14.2881 18.5156 13.7803C19.0234 13.2725 19.6191 12.8672 20.3027 12.5645C20.9863 12.2617 21.7188 12.1152 22.5 12.125C23.2715 12.125 23.999 12.2715 24.6826 12.5645C25.3662 12.8574 25.9619 13.2578 26.4697 13.7656C26.9775 14.2734 27.3828 14.874 27.6855 15.5674C27.9883 16.2607 28.1348 16.9883 28.125 17.75C28.125 18.668 27.9199 19.5225 27.5098 20.3135C27.0996 21.1045 26.5234 21.7637 25.7812 22.291ZM22.5 21.5C23.0176 21.5 23.501 21.4023 23.9502 21.207C24.3994 21.0117 24.7998 20.7432 25.1514 20.4014C25.5029 20.0596 25.7715 19.6641 25.957 19.2148C26.1426 18.7656 26.2402 18.2773 26.25 17.75C26.25 17.2324 26.1523 16.749 25.957 16.2998C25.7617 15.8506 25.4932 15.4502 25.1514 15.0986C24.8096 14.7471 24.4141 14.4785 23.9648 14.293C23.5156 14.1074 23.0273 14.0098 22.5 14C21.9824 14 21.499 14.0977 21.0498 14.293C20.6006 14.4883 20.2002 14.7568 19.8486 15.0986C19.4971 15.4404 19.2285 15.8359 19.043 16.2852C18.8574 16.7344 18.7598 17.2227 18.75 17.75C18.75 18.2676 18.8477 18.751 19.043 19.2002C19.2383 19.6494 19.5068 20.0498 19.8486 20.4014C20.1904 20.7529 20.5859 21.0215 21.0352 21.207C21.4844 21.3926 21.9727 21.4902 22.5 21.5ZM15 22.6719C14.6875 23.0332 14.4043 23.4092 14.1504 23.7998C13.8965 24.1904 13.6719 24.6104 13.4766 25.0596C12.959 24.5225 12.334 24.1074 11.6016 23.8145C10.8691 23.5215 10.127 23.375 9.375 23.375H3.75V4.625H1.875V25.25H13.4033C13.2666 25.5527 13.1543 25.8604 13.0664 26.1729C12.9785 26.4854 12.9053 26.8027 12.8467 27.125H0V2.75H3.75V0.875H9.375C10.2344 0.875 11.0596 1.00684 11.8506 1.27051C12.6416 1.53418 13.3789 1.92969 14.0625 2.45703C14.7363 1.92969 15.4688 1.53418 16.2598 1.27051C17.0508 1.00684 17.8809 0.875 18.75 0.875H24.375V2.75H28.125V12.125C27.5586 11.5684 26.9336 11.1045 26.25 10.7334V4.625H24.375V10.0303C24.0625 9.94238 23.75 9.87891 23.4375 9.83984C23.125 9.80078 22.8125 9.78125 22.5 9.78125V2.75H18.75C18.0664 2.75 17.4023 2.86719 16.7578 3.10156C16.1133 3.33594 15.5273 3.68262 15 4.1416V22.6719ZM13.125 22.4814V4.1416C12.5977 3.69238 12.0117 3.35059 11.3672 3.11621C10.7227 2.88184 10.0586 2.75977 9.375 2.75H5.625V21.5H9.375C10.0293 21.5 10.6738 21.583 11.3086 21.749C11.9434 21.915 12.5488 22.1592 13.125 22.4814Z" fill="#140DBD"/>
</svg>
