<svg width="24" height="22" viewBox="0 0 24 22" fill="none" xmlns="http://www.w3.org/2000/svg">
<path d="M12 0.806999L23.835 8.5L22 9.693V16H20V10.993L19 11.643V17.5C19 18.97 17.986 20.115 16.747 20.839C15.482 21.576 13.802 21.999 12 21.999C10.198 21.999 8.51704 21.576 7.25304 20.839C6.01304 20.115 5.00004 18.969 5.00004 17.499V11.643L0.165039 8.5L12 0.806999ZM7.00004 12.943V17.5C7.00004 17.963 7.33004 18.567 8.26104 19.11C9.16904 19.64 10.488 20 12 20C13.512 20 14.831 19.64 15.739 19.11C16.671 18.567 16.999 17.963 16.999 17.5V12.943L11.999 16.193L7.00004 12.943ZM20.165 8.5L12 3.193L3.83504 8.5L12 13.807L20.165 8.5Z" fill="#140DBD"/>
</svg>
