<svg width="120" height="90" viewBox="0 0 120 90" fill="none" xmlns="http://www.w3.org/2000/svg">
<path d="M64.25 89.75V64.25H81.25L60 38.75L38.75 64.25H55.75V89.75H34.5V89.5375C33.786 89.58 33.106 89.75 32.375 89.75C23.9212 89.75 15.8137 86.3918 9.83597 80.414C3.85825 74.4363 0.5 66.3288 0.5 57.875C0.5 41.521 12.8675 28.193 28.737 26.3655C30.1284 19.092 34.0108 12.5306 39.7165 7.81C45.4222 3.08935 52.5946 0.504488 60 0.5C67.4064 0.504145 74.58 3.0887 80.2871 7.80924C85.9943 12.5298 89.8783 19.0913 91.2715 26.3655C107.141 28.193 119.491 41.521 119.491 57.875C119.491 66.3288 116.133 74.4363 110.156 80.414C104.178 86.3918 96.0703 89.75 87.6165 89.75C86.9025 89.75 86.214 89.58 85.4915 89.5375V89.75H64.25Z" fill="#140DBD"/>
</svg>
